<?xml version="1.0" encoding="UTF-8"?>
<svg xmlns="http://www.w3.org/2000/svg" width="600" height="400" viewBox="0 0 600 400" fill="none">
  <!-- Background -->
  <rect width="600" height="400" fill="#E6F0E6"/>
  
  <!-- Ground/Grass -->
  <rect y="350" width="600" height="50" fill="#8B6C3D"/>
  <path d="M0 350 L600 350 L600 360 Q300 345 0 360 Z" fill="#4C8141"/>
  
  <!-- Fence Posts -->
  <rect x="20" y="150" width="20" height="200" fill="#654321"/>
  <rect x="180" y="150" width="20" height="200" fill="#654321"/>
  <rect x="400" y="150" width="20" height="200" fill="#654321"/>
  <rect x="560" y="150" width="20" height="200" fill="#654321"/>
  
  <!-- Fence Sections -->
  <rect x="40" y="170" width="140" height="15" fill="#8B6C3D"/>
  <rect x="40" y="210" width="140" height="15" fill="#8B6C3D"/>
  <rect x="40" y="250" width="140" height="15" fill="#8B6C3D"/>
  <rect x="40" y="290" width="140" height="15" fill="#8B6C3D"/>
  
  <rect x="420" y="170" width="140" height="15" fill="#8B6C3D"/>
  <rect x="420" y="210" width="140" height="15" fill="#8B6C3D"/>
  <rect x="420" y="250" width="140" height="15" fill="#8B6C3D"/>
  <rect x="420" y="290" width="140" height="15" fill="#8B6C3D"/>
  
  <!-- Gate Frame -->
  <rect x="200" y="160" width="200" height="190" rx="2" fill="#5A4434"/>
  <rect x="210" y="170" width="180" height="170" rx="2" fill="#8B6C3D"/>
  
  <!-- Gate Design -->
  <rect x="225" y="180" width="150" height="15" fill="#654321"/>
  <rect x="225" y="315" width="150" height="15" fill="#654321"/>
  
  <!-- Vertical Gate Slats -->
  <rect x="235" y="195" width="10" height="120" fill="#8B6C3D"/>
  <rect x="265" y="195" width="10" height="120" fill="#8B6C3D"/>
  <rect x="295" y="195" width="10" height="120" fill="#8B6C3D"/>
  <rect x="325" y="195" width="10" height="120" fill="#8B6C3D"/>
  <rect x="355" y="195" width="10" height="120" fill="#8B6C3D"/>
  
  <!-- Gate Handle -->
  <circle cx="345" cy="250" r="7" fill="#454545"/>
  
  <!-- Trees/Bushes in Background -->
  <circle cx="100" cy="120" r="40" fill="#2E563B"/>
  <circle cx="500" cy="130" r="30" fill="#2E563B"/>
  
  <!-- Decorative Clouds -->
  <ellipse cx="150" cy="70" rx="50" ry="20" fill="#FFFFFF"/>
  <ellipse cx="450" cy="50" rx="40" ry="15" fill="#FFFFFF"/>
  <ellipse cx="350" cy="90" rx="30" ry="10" fill="#FFFFFF"/>
  
  <!-- Sun -->
  <circle cx="550" cy="50" r="30" fill="#FFDB58"/>
  <circle cx="550" cy="50" r="25" fill="#FFEB8D"/>
  
  <!-- Path to Gate -->
  <path d="M300 350 L300 340 Q280 330 270 320 Q260 310 260 300 Q260 290 270 280 Q280 270 300 260 Q320 270 330 280 Q340 290 340 300 Q340 310 330 320 Q320 330 300 340 Z" fill="#B9935A"/>
</svg>